<svg width="112" height="58" viewBox="0 0 112 58" fill="none" xmlns="http://www.w3.org/2000/svg">
<path d="M7.08002 51.4072L0.540039 57.9572H13.6201L7.08002 51.4072Z" fill="#FFC263"/>
<path d="M26.6899 51.4072L20.1499 57.9572H33.2299L26.6899 51.4072Z" fill="#FFC263"/>
<path d="M46.3 51.4072L39.76 57.9572H52.84L46.3 51.4072Z" fill="#FFC263"/>
<path d="M65.9101 51.4072L59.3701 57.9572H72.4501L65.9101 51.4072Z" fill="#FFC263"/>
<path d="M85.52 51.4072L78.98 57.9572H92.06L85.52 51.4072Z" fill="#FFC263"/>
<path d="M105.13 51.4072L98.5901 57.9572H111.67L105.13 51.4072Z" fill="#FFC263"/>
<path d="M26.6899 31.3877L20.1499 37.9277H33.2299L26.6899 31.3877Z" fill="#FFC263"/>
<path d="M46.2998 31.3877L39.7598 37.9277H52.8398L46.2998 31.3877Z" fill="#FFC263"/>
<path d="M65.9099 31.3877L59.3699 37.9277H72.4498L65.9099 31.3877Z" fill="#FFC263"/>
<path d="M85.52 31.3877L78.98 37.9277H92.06L85.52 31.3877Z" fill="#FFC263"/>
<path d="M46.3 11.3574L39.76 17.8974H52.84L46.3 11.3574Z" fill="#FFC263"/>
<path d="M65.9101 11.3574L59.3701 17.8974H72.4501L65.9101 11.3574Z" fill="#FFC263"/>
<path d="M16.8901 40.8271L10.3501 47.3672H23.4301L16.8901 40.8271Z" fill="#FFC263"/>
<path d="M36.5002 40.8271L29.9502 47.3672H43.0402L36.5002 40.8271Z" fill="#FFC263"/>
<path d="M56.11 40.8271L49.5601 47.3672H62.65L56.11 40.8271Z" fill="#FFC263"/>
<path d="M75.7101 40.8271L69.1702 47.3672H82.2601L75.7101 40.8271Z" fill="#FFC263"/>
<path d="M95.32 40.8271L88.78 47.3672H101.87L95.32 40.8271Z" fill="#FFC263"/>
<path d="M36.5 21.377L29.95 27.917H43.04L36.5 21.377Z" fill="#FFC263"/>
<path d="M56.11 21.377L49.5601 27.917H62.65L56.11 21.377Z" fill="#FFC263"/>
<path d="M75.7099 21.377L69.1699 27.917H82.2599L75.7099 21.377Z" fill="#FFC263"/>
<path d="M56.11 0.657227L49.5601 7.19724H62.65L56.11 0.657227Z" fill="#FFC263"/>
</svg>
