<svg width="110" height="110" viewBox="0 0 110 110" fill="none" xmlns="http://www.w3.org/2000/svg">
<path d="M50.41 73.4171C48.23 74.8771 45.99 75.1671 43.82 73.4871C41.66 71.8171 41.4601 69.547 42.3001 66.747C39.4701 67.357 36.9201 67.3471 35.2501 64.8171C33.8201 62.6571 34.16 60.537 35.58 58.497C35.76 58.327 35.93 58.1571 36.11 57.9871C37.12 57.2571 38.3 56.5571 39.47 56.7871C41.62 57.2171 41.23 56.2171 41.34 54.7071C41.5 52.6171 41.2801 51.7571 38.9301 52.0971C38.0801 52.2171 37.1 51.4571 36.17 51.0971C35.92 50.8471 35.6801 50.6071 35.4301 50.3571C34.1801 48.2771 33.8001 46.1471 35.3101 44.0371C36.9801 41.6971 39.35 41.497 42.26 42.277C41.52 39.417 41.63 36.907 44.15 35.247C46.3 33.827 48.4101 34.1871 50.4401 35.5871C50.6101 35.7671 50.78 35.9371 50.95 36.1171C51.36 37.1371 52.26 38.2271 52.1 39.1471C51.68 41.6271 52.86 41.1771 54.58 41.3171C56.65 41.4871 56.83 40.927 56.77 39.157C56.74 38.157 57.5201 37.1271 57.9401 36.1171C58.1201 35.9271 58.3101 35.747 58.4901 35.557C60.6601 34.037 62.89 33.7771 65.07 35.4271C67.24 37.0771 67.5 39.3471 66.66 42.1271C69.42 41.6471 72.0001 41.5271 73.6801 44.0771C75.1101 46.2371 74.7901 48.347 73.4301 50.407C73.2201 50.617 73.0101 50.827 72.8001 51.027C71.7701 51.427 70.69 52.2571 69.72 52.1471C67.62 51.9071 67.64 52.657 67.67 54.437C67.7 56.157 67.59 56.9971 69.73 56.7571C70.7 56.6471 71.7801 57.4771 72.8001 57.8871C73.0101 58.0971 73.2301 58.307 73.4401 58.527C74.8901 60.697 75.18 62.9271 73.51 65.0871C71.86 67.2271 69.63 67.5671 66.83 66.6571C67.4 69.5471 67.3 72.1771 64.64 73.8371C62.59 75.1071 60.5601 74.7571 58.6201 73.5171C58.3601 73.2571 58.09 72.9871 57.83 72.7271C56.8 71.2071 56.54 69.497 56.82 67.717C53.89 67.387 51.4501 67.4671 51.7501 71.3571C51.7901 71.8271 51.27 72.3271 51.01 72.8171C50.8 73.0271 50.61 73.2271 50.41 73.4171ZM64.46 64.4771C62.78 63.4571 66.3101 60.2471 62.5601 60.2371C60.6401 60.2271 60.2 60.887 60.21 62.657C60.24 66.3671 63.4 62.8471 64.46 64.4771ZM44.5501 64.5171C45.5801 63.1071 49.3301 66.4471 48.6801 61.8671C48.1601 58.2271 45.85 61.097 44.57 60.157C45.09 61.677 44.5401 62.9471 44.5501 64.5171ZM64.59 44.557C60.15 45.017 60.2601 45.0271 60.1301 46.0671C59.6901 49.6471 62.4001 48.4271 64.5001 48.9871C63.8701 47.3271 64.35 45.967 64.59 44.557ZM44.51 44.3571C44.76 45.9771 44.91 47.3571 44.67 48.9271C45.89 47.8271 48.35 50.537 48.76 46.937C49.27 42.477 45.5 46.0171 44.51 44.3571ZM52.7501 54.2071C52.8201 55.1571 52.1101 56.5071 54.0501 56.1371C55.0301 55.9471 56.3001 56.6471 56.1301 54.5971C56.0201 53.2071 55.9501 52.6671 54.3601 52.7671C53.17 52.8471 52.3101 52.7271 52.7501 54.2071Z" fill="#EE885E"/>
<path d="M50.9501 36.1276C50.7801 35.9476 50.6101 35.7776 50.4401 35.5976C50.4101 35.3776 50.4401 35.1276 50.3501 34.9376C49.2201 32.4476 49.1801 30.0877 51.5001 28.2677C53.3801 26.7877 55.5101 26.7776 57.4001 28.2476C59.7301 30.0476 59.7001 32.4176 58.5901 34.9076C58.5001 35.1076 58.5201 35.3476 58.4901 35.5676C58.3101 35.7576 58.1201 35.9376 57.9401 36.1276C55.6101 37.0876 53.2801 37.0576 50.9501 36.1276Z" fill="#EE885E"/>
<path d="M73.43 58.5476C73.22 58.3376 73 58.1276 72.79 57.9076C71.81 55.6176 71.83 53.3376 72.79 51.0476C73 50.8376 73.21 50.6276 73.42 50.4276C74.16 50.1976 74.89 49.9076 75.65 49.7676C77.81 49.3576 79.67 49.8776 80.91 51.7976C82.04 53.5476 82.04 55.3976 80.92 57.1576C79.68 59.0776 77.83 59.6076 75.67 59.2076C74.91 59.0676 74.18 58.7676 73.43 58.5476Z" fill="#EE885E"/>
<path d="M57.81 72.7376C58.07 73.0076 58.34 73.2676 58.6 73.5276C58.74 74.0676 58.89 74.5976 59.03 75.1376C59.63 77.4176 59.27 79.4476 57.24 80.8576C55.38 82.1376 53.38 82.1176 51.55 80.7876C49.56 79.3376 49.24 77.2976 49.91 75.0276C50.07 74.4876 50.24 73.9576 50.4 73.4276C50.59 73.2276 50.79 73.0376 50.98 72.8376C53.25 71.8776 55.53 71.8976 57.81 72.7376Z" fill="#EE885E"/>
<path d="M36.1 57.9969C35.92 58.1669 35.75 58.3369 35.57 58.5069C32.84 59.3769 30.1001 60.1569 28.0601 57.2169C26.8701 55.5069 26.8501 53.6369 27.9801 51.8769C29.9201 48.8669 32.6701 49.5369 35.4301 50.3669C35.6801 50.6169 35.9201 50.8569 36.1701 51.1069C37.0801 53.4169 36.99 55.7069 36.1 57.9969Z" fill="#EE885E"/>
<path d="M81.53 69.3269C81.58 71.8569 79.31 74.1369 76.78 74.0869C74.38 74.0369 72.24 71.9069 72.19 69.5069C72.14 66.9669 74.4 64.6969 76.94 64.7469C79.34 64.7969 81.48 66.9269 81.53 69.3269Z" fill="#EE885E"/>
<path d="M32.1 74.0474C29.6 74.0774 27.35 71.7874 27.43 69.2874C27.5 66.9074 29.64 64.8074 32.02 64.7874C34.52 64.7574 36.7701 67.0474 36.6901 69.5474C36.6101 71.9274 34.48 74.0274 32.1 74.0474Z" fill="#EE885E"/>
<path d="M44.1702 76.7271C44.2702 79.2271 42.0401 81.5371 39.5201 81.5371C37.1401 81.5371 34.9802 79.4471 34.8802 77.0571C34.7802 74.5571 37.0102 72.2471 39.5302 72.2471C41.9102 72.2471 44.0702 74.3271 44.1702 76.7271Z" fill="#EE885E"/>
<path d="M76.6 44.2077C74.07 44.0477 71.97 41.6077 72.22 39.1277C72.47 36.7177 74.75 34.7477 77.12 34.8977C79.65 35.0577 81.76 37.4977 81.5 39.9777C81.25 42.3877 78.96 44.3577 76.6 44.2077Z" fill="#EE885E"/>
<path d="M31.8899 34.917C34.2499 34.827 36.48 36.827 36.67 39.217C36.87 41.697 34.7299 44.077 32.2099 44.177C29.7099 44.277 27.41 42.047 27.42 39.537C27.43 37.167 29.5099 35.017 31.8899 34.917Z" fill="#EE885E"/>
<path d="M74.05 32.1077C74.04 34.6377 71.72 36.8577 69.2 36.7477C66.8 36.6377 64.72 34.4677 64.73 32.0677C64.74 29.5377 67.07 27.3177 69.58 27.4277C71.98 27.5377 74.06 29.7177 74.05 32.1077Z" fill="#EE885E"/>
<path d="M39.5399 27.4572C42.0499 27.4672 44.2699 29.7872 44.1499 32.2772C44.0399 34.6672 41.87 36.7272 39.5 36.7172C36.99 36.7072 34.7699 34.3872 34.8899 31.8972C34.9999 29.5072 37.1699 27.4372 39.5399 27.4572Z" fill="#EE885E"/>
<path d="M74.05 76.8272C74.08 79.3472 71.8 81.6072 69.28 81.5372C66.88 81.4672 64.77 79.3372 64.74 76.9372C64.71 74.4072 66.98 72.1572 69.51 72.2272C71.91 72.2972 74.01 74.4272 74.05 76.8272Z" fill="#EE885E"/>
<path d="M42.6699 84.0876C43.0499 81.4576 44.5299 80.0476 47.1799 80.0776C49.7099 80.1076 51.5599 82.2576 51.2399 84.7976C50.8999 87.4576 49.2399 88.7876 46.6299 88.5976C43.9499 88.4076 42.7499 86.6776 42.6699 84.0876Z" fill="#EE885E"/>
<path d="M84.3201 66.2969C81.6901 66.0669 80.1501 64.6969 80.0201 62.0269C79.9001 59.4869 81.9602 57.4669 84.5002 57.6569C87.1502 57.8569 88.6502 59.4069 88.6102 62.0469C88.5602 64.7169 86.9401 66.0769 84.3201 66.2969Z" fill="#EE885E"/>
<path d="M28.8701 61.9075C28.6701 64.5375 27.3301 66.1575 24.6301 66.1775C21.9601 66.1975 20.3901 64.6875 20.3601 62.0075C20.3301 59.3375 21.85 57.7775 24.53 57.7375C27.23 57.6875 28.6101 59.2675 28.8701 61.9075Z" fill="#EE885E"/>
<path d="M66.27 84.3075C66.08 86.9175 64.74 88.5575 62.07 88.6375C59.43 88.7175 57.8501 87.2375 57.6201 84.5875C57.4001 82.0475 59.4001 79.9675 61.9401 80.0575C64.6101 80.1475 66 81.6675 66.27 84.3075Z" fill="#EE885E"/>
<path d="M84.2501 51.3569C81.6101 51.0769 80.1 49.6769 80.02 47.0069C79.94 44.4669 82.05 42.4769 84.58 42.7169C87.23 42.9669 88.7 44.5469 88.6 47.1869C88.51 49.8569 86.8601 51.1769 84.2501 51.3569Z" fill="#EE885E"/>
<path d="M24.76 42.7373C27.39 43.0573 28.9101 44.5073 28.8101 47.1873C28.7101 49.8673 27.0801 51.3373 24.4201 51.2373C21.7401 51.1473 20.2801 49.5173 20.3601 46.8573C20.4501 44.1573 22.12 42.8773 24.76 42.7373Z" fill="#EE885E"/>
<path d="M51.3099 24.5172C51.0299 27.3272 49.6299 28.8972 46.9299 28.8572C44.2399 28.8172 42.7199 27.2371 42.7499 24.5571C42.7799 21.8671 44.3699 20.3571 47.0499 20.3771C49.7699 20.3871 51.0599 22.0672 51.3099 24.5172Z" fill="#EE885E"/>
<path d="M66.2401 24.6669C65.9901 27.2869 64.6101 28.8069 61.9501 28.8969C59.4101 28.9869 57.4401 26.9369 57.6501 24.3969C57.8701 21.7469 59.4302 20.2869 62.0602 20.3569C64.7302 20.4269 66.0501 22.0569 66.2401 24.6669Z" fill="#EE885E"/>
<path d="M32.17 88.2876C29.82 88.0176 28.26 86.7876 28.21 84.4376C28.16 82.0876 29.64 80.5676 31.97 80.5076C34.31 80.4476 35.84 81.9376 35.9 84.2676C35.96 86.6276 34.43 87.8976 32.17 88.2876Z" fill="#EE885E"/>
<path d="M54.5201 95.7778C52.2101 95.5078 50.6401 94.2678 50.5901 91.9078C50.5401 89.5478 52.0301 88.0178 54.3701 87.9578C56.7301 87.8978 58.2601 89.3978 58.3201 91.7378C58.3901 94.1078 56.8501 95.3978 54.5201 95.7778Z" fill="#EE885E"/>
<path d="M92.0702 50.5469C94.1602 50.8869 95.5802 52.1369 95.7102 54.4869C95.8202 56.6069 93.6302 58.6769 91.5402 58.3969C89.2502 58.0869 87.9102 56.6569 87.8802 54.3169C87.8502 52.3069 89.8902 50.4969 92.0702 50.5469Z" fill="#EE885E"/>
<path d="M21.0401 54.4573C20.6601 56.8673 19.3801 58.3773 17.0301 58.3173C14.7001 58.2573 13.2301 56.7373 13.2901 54.4073C13.3501 52.0773 14.8701 50.6173 17.2001 50.6673C19.5601 50.6973 20.7401 52.2973 21.0401 54.4573Z" fill="#EE885E"/>
<path d="M54.4001 13.2275C56.7001 13.4975 58.2601 14.7275 58.3001 17.0775C58.3401 19.4275 56.8601 20.9475 54.5301 20.9975C52.1801 21.0475 50.6701 19.5575 50.6101 17.2275C50.5501 14.8675 52.0801 13.5875 54.4001 13.2275Z" fill="#EE885E"/>
<path d="M35.96 24.5572C35.7 26.8472 34.48 28.3973 32.14 28.4473C29.8 28.4973 28.29 27.0273 28.23 24.7073C28.17 22.3773 29.65 20.8573 31.97 20.7973C34.32 20.7273 35.6 22.2372 35.96 24.5572Z" fill="#EE885E"/>
<path d="M80.81 84.4276C80.43 86.7576 79.14 88.2875 76.77 88.2275C74.43 88.1575 72.93 86.6275 72.99 84.2675C73.05 81.9275 74.59 80.4375 76.94 80.4875C79.31 80.5375 80.54 82.1176 80.81 84.4276Z" fill="#EE885E"/>
<path d="M76.7902 20.667C79.1002 20.937 80.6702 22.177 80.7202 24.537C80.7702 26.897 79.2802 28.427 76.9302 28.487C74.5702 28.547 73.0402 27.047 72.9802 24.707C72.9302 22.327 74.4702 21.047 76.7902 20.667Z" fill="#EE885E"/>
<path d="M24.5501 72.9678C26.9601 73.3378 28.4701 74.6178 28.4201 76.9678C28.3601 79.2978 26.8501 80.7678 24.5101 80.7178C22.1901 80.6678 20.7201 79.1478 20.7601 76.8078C20.8001 74.4578 22.3901 73.2778 24.5501 72.9678Z" fill="#EE885E"/>
<path d="M84.3801 36.037C82.0701 35.757 80.5 34.517 80.46 32.157C80.42 29.797 81.9101 28.267 84.2501 28.217C86.6101 28.167 88.1301 29.667 88.1901 32.007C88.2501 34.377 86.7101 35.667 84.3801 36.037Z" fill="#EE885E"/>
<path d="M28.5001 31.9673C28.2301 34.3073 27.0101 35.8673 24.6701 35.9073C22.3301 35.9573 20.82 34.4873 20.76 32.1573C20.71 29.8273 22.18 28.3073 24.51 28.2473C26.86 28.1973 28.1201 29.7273 28.5001 31.9673Z" fill="#EE885E"/>
<path d="M88.2901 76.9769C87.9101 79.2669 86.6501 80.6869 84.3101 80.8069C82.1801 80.9169 80.1201 78.7069 80.4201 76.6269C80.7401 74.3369 82.1801 72.8869 84.5101 73.0069C86.8201 73.1169 88.0501 74.6769 88.2901 76.9769Z" fill="#EE885E"/>
<path d="M91.9 35.957C94.19 36.197 95.44 37.457 95.33 39.747C95.21 42.067 93.7701 43.227 91.5001 43.087C89.3701 42.957 88.2101 41.637 88.2401 39.517C88.2801 37.197 89.64 36.077 91.9 35.957Z" fill="#EE885E"/>
<path d="M91.8899 73.047C89.4999 72.827 88.1899 71.647 88.2299 69.367C88.2599 67.097 89.5799 65.827 91.8499 65.857C94.1199 65.887 95.3799 67.207 95.3699 69.467C95.3499 71.777 93.9399 72.847 91.8899 73.047Z" fill="#EE885E"/>
<path d="M16.9699 72.9775C14.7099 72.7275 13.4799 71.4675 13.6099 69.1975C13.7399 66.8975 15.1799 65.7675 17.4199 65.9175C19.5299 66.0575 20.66 67.3675 20.62 69.4775C20.59 71.7875 19.2199 72.8675 16.9699 72.9775Z" fill="#EE885E"/>
<path d="M69.39 13.5771C71.65 13.7571 72.97 14.9271 72.92 17.2271C72.87 19.5371 71.51 20.7471 69.23 20.6671C67.11 20.5971 65.9 19.3571 65.87 17.2271C65.83 14.9371 67.12 13.7571 69.39 13.5771Z" fill="#EE885E"/>
<path d="M17.3501 43.1174C14.9601 42.9774 13.6101 41.8574 13.6101 39.5574C13.6201 37.2674 14.9201 36.0174 17.2001 36.0474C19.3101 36.0674 20.5401 37.2674 20.6301 39.3874C20.7301 41.6874 19.4301 42.8474 17.3501 43.1174Z" fill="#EE885E"/>
<path d="M73 91.827C72.73 94.247 71.46 95.497 69.17 95.367C66.85 95.237 65.71 93.777 65.86 91.517C66 89.387 67.33 88.2469 69.45 88.2769C71.79 88.3069 72.83 89.737 73 91.827Z" fill="#EE885E"/>
<path d="M39.64 95.4077C37.22 95.1977 35.93 93.9977 36 91.7077C36.07 89.3977 37.45 88.2077 39.72 88.2977C41.84 88.3777 43.02 89.6477 43.05 91.7677C43.09 94.1077 41.71 95.1977 39.64 95.4077Z" fill="#EE885E"/>
<path d="M43.08 17.2975C42.83 19.5575 41.5701 20.7875 39.3001 20.6575C37.0001 20.5275 35.87 19.0875 36.02 16.8475C36.16 14.7375 37.47 13.6075 39.58 13.6475C41.89 13.6875 42.97 15.0475 43.08 17.2975Z" fill="#EE885E"/>
<path d="M99.23 65.1977C97.19 64.7977 95.93 63.6777 96.1 61.7177C96.27 59.8077 97.59 58.6177 99.57 58.8177C101.34 58.9977 102.47 60.2277 102.41 62.0377C102.35 64.0077 101.01 64.9577 99.23 65.1977Z" fill="#EE885E"/>
<path d="M9.6601 65.077C7.7601 64.877 6.53008 63.827 6.58008 61.847C6.62008 60.047 7.79009 58.887 9.59009 58.877C11.5601 58.867 12.7601 60.087 12.7301 62.057C12.6901 63.857 11.5201 64.857 9.6601 65.077Z" fill="#EE885E"/>
<path d="M61.8301 6.52734C63.5701 6.64734 64.8401 7.54736 65.0101 9.35736C65.2001 11.3574 64.0401 12.6673 62.0801 12.7773C60.1101 12.8873 58.8401 11.6574 58.8201 9.67737C58.8001 7.85737 59.9701 6.82734 61.8301 6.52734Z" fill="#EE885E"/>
<path d="M102.48 46.907C102.29 48.807 101.28 50.1371 99.3201 50.1771C97.3601 50.2171 96.1201 48.957 96.1001 46.997C96.0801 45.197 97.2601 43.977 99.0301 43.857C101 43.727 102.11 44.957 102.48 46.907Z" fill="#EE885E"/>
<path d="M9.57008 43.8975C11.2901 44.0075 12.5401 44.8874 12.7101 46.6974C12.8901 48.6774 11.7701 49.9775 9.81013 50.0875C7.85013 50.1975 6.60009 48.9875 6.58009 47.0175C6.56009 45.2075 7.70008 44.1675 9.57008 43.8975Z" fill="#EE885E"/>
<path d="M50.1802 99.2173C49.9802 101.107 48.9701 102.407 47.0101 102.417C45.0701 102.427 43.8402 101.177 43.8502 99.2273C43.8502 97.4373 45.0202 96.2474 46.7902 96.1474C48.7502 96.0474 49.8502 97.2573 50.1802 99.2173Z" fill="#EE885E"/>
<path d="M50.14 9.6272C50 11.3872 49.06 12.6372 47.26 12.7772C45.28 12.9272 43.96 11.7572 43.89 9.7872C43.82 7.8072 45.07 6.56721 47.05 6.57721C48.87 6.58721 49.88 7.7772 50.14 9.6272Z" fill="#EE885E"/>
<path d="M61.93 102.487C60.01 102.237 58.74 101.177 58.79 99.2272C58.84 97.2872 60.12 96.0872 62.07 96.1572C63.84 96.2172 65.02 97.4072 65.06 99.1872C65.1 101.147 63.86 102.207 61.93 102.487Z" fill="#EE885E"/>
<path d="M91.76 87.2174C89.92 87.0674 88.88 86.0774 88.97 84.1874C89.05 82.4674 90.08 81.5174 91.8 81.5374C93.7 81.5574 94.69 82.6574 94.62 84.5274C94.55 86.2574 93.49 87.1074 91.76 87.2174Z" fill="#EE885E"/>
<path d="M84.0601 14.2969C86.0601 14.3969 87.1501 15.3069 87.1301 17.1969C87.1101 18.9069 86.1501 19.9069 84.4401 19.9469C82.5701 19.9869 81.5201 18.9769 81.5201 17.0969C81.5101 15.3569 82.5601 14.5269 84.0601 14.2969Z" fill="#EE885E"/>
<path d="M84.3601 88.957C86.0901 89.107 87.1201 89.987 87.1501 91.717C87.1801 93.607 86.1501 94.657 84.2601 94.637C82.5401 94.617 81.5401 93.637 81.5001 91.907C81.4601 90.017 82.5301 89.067 84.3601 88.957Z" fill="#EE885E"/>
<path d="M91.54 21.7471C93.54 21.8471 94.6401 22.7571 94.6201 24.6671C94.6001 26.3871 93.63 27.3971 91.91 27.4371C90.02 27.4771 88.97 26.4571 88.97 24.5571C88.96 22.8171 90.01 21.9671 91.54 21.7471Z" fill="#EE885E"/>
<path d="M27.39 17.2177C27.22 18.9077 26.3401 19.9277 24.6101 19.9177C22.7101 19.9077 21.7201 18.7877 21.8301 16.9277C21.9301 15.2177 23.0201 14.3077 24.7301 14.3877C26.4601 14.4677 27.29 15.5177 27.39 17.2177Z" fill="#EE885E"/>
<path d="M17.23 81.5371C18.93 81.7271 19.94 82.6371 19.9 84.3771C19.87 86.3071 18.72 87.2671 16.85 87.1371C15.12 87.0171 14.24 85.8971 14.33 84.1771C14.44 82.4271 15.52 81.6071 17.23 81.5371Z" fill="#EE885E"/>
<path d="M79.52 9.58723C79.38 11.1272 78.57 12.1972 77.03 12.2772C75.31 12.3672 74.23 11.3172 74.25 9.60722C74.27 8.06722 75.29 7.08722 76.84 7.07722C78.41 7.06722 79.25 8.07723 79.52 9.58723Z" fill="#EE885E"/>
<path d="M34.6999 9.69737C34.4799 11.2074 33.6599 12.2574 32.1199 12.2674C30.4299 12.2774 29.3699 11.1974 29.4699 9.50736C29.5599 8.00736 30.5999 7.03736 32.1399 7.09736C33.6899 7.15736 34.4899 8.18737 34.6999 9.69737Z" fill="#EE885E"/>
<path d="M24.58 88.9971C26.29 89.1171 27.34 89.9871 27.37 91.7271C27.4 93.6371 26.33 94.6771 24.43 94.5971C22.7 94.5271 21.77 93.4671 21.8 91.7471C21.84 89.9971 22.87 89.1271 24.58 88.9971Z" fill="#EE885E"/>
<path d="M99.24 79.5876C97.6 79.3576 96.53 78.4576 96.62 76.7276C96.7 75.1876 97.7 74.2176 99.25 74.2376C100.96 74.2676 101.98 75.3176 101.9 77.0376C101.84 78.5976 100.8 79.4076 99.24 79.5876Z" fill="#EE885E"/>
<path d="M9.45001 74.2275C11.1 74.4075 12.16 75.2175 12.23 76.7375C12.3 78.4275 11.25 79.5075 9.55005 79.4675C8.03005 79.4375 7.07006 78.4075 7.06006 76.8775C7.06006 75.3075 8.14001 74.5575 9.45001 74.2275Z" fill="#EE885E"/>
<path d="M17.2301 27.4474C15.3601 27.2474 14.3402 26.3574 14.3602 24.6274C14.3802 22.7274 15.5002 21.7374 17.3602 21.8574C19.0702 21.9674 19.9601 23.0674 19.8901 24.7674C19.8101 26.5274 18.6901 27.2774 17.2301 27.4474Z" fill="#EE885E"/>
<path d="M99.0901 34.7674C97.5001 34.4274 96.4501 33.4973 96.6401 31.7873C96.8101 30.2973 97.8401 29.3374 99.3801 29.4574C101.06 29.5874 102.04 30.6873 101.87 32.3773C101.72 33.8773 100.66 34.6674 99.0901 34.7674Z" fill="#EE885E"/>
<path d="M34.72 99.3973C34.44 100.907 33.6 101.917 32.03 101.897C30.48 101.877 29.46 100.897 29.45 99.3473C29.44 97.6273 30.5201 96.5873 32.2401 96.6873C33.7801 96.7773 34.59 97.8473 34.72 99.3973Z" fill="#EE885E"/>
<path d="M76.68 96.5771C78.47 96.8271 79.55 97.7071 79.48 99.4171C79.42 100.937 78.42 101.917 76.89 101.907C75.2 101.897 74.18 100.847 74.23 99.1472C74.27 97.6072 75.37 96.8771 76.68 96.5771Z" fill="#EE885E"/>
<path d="M12.27 32.157C11.98 33.687 11.13 34.707 9.56002 34.647C8.02002 34.577 7.02999 33.557 7.08999 31.997C7.14999 30.457 8.18001 29.467 9.74001 29.527C11.3 29.577 12.1 30.637 12.27 32.157Z" fill="#EE885E"/>
<path d="M109.08 54.4271C108.93 55.9471 108.14 56.8171 106.7 56.7971C105.26 56.7771 104.4 55.8971 104.41 54.4571C104.43 53.0171 105.31 52.1571 106.75 52.1671C108.2 52.1871 108.93 53.0971 109.08 54.4271Z" fill="#EE885E"/>
<path d="M71.44 106.487C71.39 107.857 70.79 108.647 69.63 108.757C68.31 108.887 67.4299 108.187 67.3899 106.827C67.3399 105.477 68.1399 104.727 69.4899 104.747C70.6899 104.757 71.23 105.577 71.44 106.487Z" fill="#EE885E"/>
<path d="M52.1602 106.798C52.3702 105.188 53.2201 104.398 54.6501 104.518C56.1101 104.638 56.8302 105.628 56.6902 107.048C56.5602 108.308 55.7102 109.048 54.4102 109.008C52.9402 108.968 52.2802 108.038 52.1602 106.798Z" fill="#EE885E"/>
<path d="M41.55 106.737C41.41 108.007 40.73 108.797 39.4 108.737C38.25 108.687 37.54 107.947 37.54 106.797C37.54 105.477 38.33 104.717 39.65 104.767C40.8 104.817 41.4 105.577 41.55 106.737Z" fill="#EE885E"/>
<path d="M41.52 2.22688C41.36 3.37688 40.75 4.15689 39.58 4.16689C38.25 4.17689 37.46 3.34687 37.56 2.02687C37.65 0.896872 38.43 0.176873 39.62 0.246873C40.79 0.316873 41.39 1.08688 41.52 2.22688Z" fill="#EE885E"/>
<path d="M56.7001 2.22731C56.5101 3.84731 55.6101 4.56732 54.1701 4.41732C52.8601 4.28732 52.1702 3.40731 52.2502 2.09731C52.3402 0.587309 53.3002 -0.122678 54.7502 0.0173224C56.0602 0.137322 56.6601 1.04731 56.7001 2.22731Z" fill="#EE885E"/>
<path d="M71.4402 2.1377C71.2002 3.5777 70.4602 4.3377 69.1502 4.1977C68.0302 4.0777 67.3202 3.30771 67.4002 2.14771C67.4902 0.827709 68.3202 0.117706 69.6302 0.237706C70.7802 0.337706 71.3002 1.1877 71.4402 2.1377Z" fill="#EE885E"/>
<path d="M4.19004 39.5474C4.05004 40.6974 3.44 41.4874 2.27 41.5074C0.939996 41.5374 0.140018 40.7074 0.230018 39.3874C0.310018 38.2474 1.07999 37.5374 2.25999 37.5874C3.43999 37.6374 4.04004 38.4074 4.19004 39.5474Z" fill="#EE885E"/>
<path d="M108.8 39.337C108.7 40.807 108.04 41.577 106.7 41.587C105.53 41.587 104.8 40.927 104.7 39.777C104.59 38.477 105.24 37.627 106.58 37.527C107.94 37.427 108.59 38.227 108.8 39.337Z" fill="#EE885E"/>
<path d="M4.39004 54.4977C4.30004 55.8977 3.54009 56.7177 2.06009 56.6677C0.750086 56.6177 0.0100883 55.8377 8.82814e-05 54.5377C-0.00991172 53.0577 0.830076 52.2677 2.30008 52.3177C3.62008 52.3477 4.29004 53.1477 4.39004 54.4977Z" fill="#EE885E"/>
<path d="M4.19015 69.4675C4.01015 70.6075 3.39012 71.3875 2.22012 71.3775C0.890118 71.3675 0.110137 70.5275 0.240137 69.1975C0.350137 68.0775 1.1501 67.3575 2.3301 67.4575C3.4801 67.5475 4.08015 68.3175 4.19015 69.4675Z" fill="#EE885E"/>
<path d="M108.79 69.377C108.7 70.677 108.05 71.447 106.7 71.457C105.53 71.457 104.8 70.797 104.7 69.647C104.59 68.347 105.24 67.487 106.58 67.397C107.91 67.307 108.63 68.047 108.79 69.377Z" fill="#EE885E"/>
</svg>
