<svg width="479" height="479" viewBox="0 0 479 479" fill="none" xmlns="http://www.w3.org/2000/svg">
<path d="M239.5 479C107.436 479 0 371.564 0 239.5C0 107.436 107.436 0 239.5 0C371.564 0 479 107.436 479 239.5C478.97 371.564 371.534 479 239.5 479ZM239.5 3.02599C109.084 3.02599 2.996 109.114 2.996 239.53C2.996 369.946 109.084 476.034 239.5 476.034C369.916 476.034 476.004 369.946 476.004 239.53C476.004 109.114 369.886 3.02599 239.5 3.02599Z" fill="white" fill-opacity="0.06"/>
<path d="M239.5 455.871C120.2 455.871 23.1294 358.8 23.1294 239.5C23.1294 120.199 120.2 23.1289 239.5 23.1289C358.801 23.1289 455.871 120.199 455.871 239.5C455.871 358.83 358.801 455.871 239.5 455.871ZM239.5 29.1509C123.495 29.1509 29.1214 123.525 29.1214 239.53C29.1214 355.535 123.495 449.909 239.5 449.909C355.505 449.909 449.879 355.535 449.879 239.53C449.879 123.525 355.505 29.1509 239.5 29.1509Z" fill="white" fill-opacity="0.06"/>
<path d="M239.5 395.801C153.335 395.801 83.2285 325.695 83.2285 239.53C83.2285 153.365 153.335 83.2588 239.5 83.2588C325.665 83.2588 395.771 153.365 395.771 239.53C395.771 325.695 325.665 395.801 239.5 395.801ZM239.5 89.2208C156.631 89.2208 89.2205 156.631 89.2205 239.5C89.2205 322.369 156.631 389.779 239.5 389.779C322.369 389.779 389.779 322.369 389.779 239.5C389.779 156.661 322.369 89.2208 239.5 89.2208Z" fill="white" fill-opacity="0.06"/>
<path d="M239.5 368.928C168.136 368.928 110.073 310.866 110.073 239.501C110.073 168.137 168.136 110.074 239.5 110.074C310.865 110.074 368.927 168.137 368.927 239.501C368.927 310.896 310.865 368.928 239.5 368.928ZM239.5 113.07C169.783 113.07 113.069 169.784 113.069 239.501C113.069 309.218 169.783 365.932 239.5 365.932C309.217 365.932 365.931 309.218 365.931 239.501C365.931 169.814 309.217 113.07 239.5 113.07Z" fill="white" fill-opacity="0.06"/>
<path d="M239.5 320.033C195.1 320.033 158.998 283.931 158.998 239.531C158.998 195.13 195.1 159.028 239.5 159.028C283.901 159.028 320.003 195.13 320.003 239.531C320.003 283.901 283.871 320.033 239.5 320.033ZM239.5 164.99C198.425 164.99 164.99 198.426 164.99 239.501C164.99 280.576 198.425 314.011 239.5 314.011C280.576 314.011 314.011 280.576 314.011 239.501C314.011 198.426 280.576 164.99 239.5 164.99Z" fill="white" fill-opacity="0.06"/>
<path d="M239.5 279.525C217.449 279.525 199.503 261.579 199.503 239.528C199.503 217.478 217.449 199.502 239.5 199.502C261.55 199.502 279.526 217.448 279.526 239.528C279.496 261.579 261.55 279.525 239.5 279.525ZM239.5 202.498C219.097 202.498 202.499 219.096 202.499 239.528C202.499 259.961 219.097 276.529 239.5 276.529C259.902 276.529 276.53 259.931 276.53 239.528C276.53 219.126 259.902 202.498 239.5 202.498Z" fill="white" fill-opacity="0.06"/>
</svg>
