<svg width="107" height="106" viewBox="0 0 107 106" fill="none" xmlns="http://www.w3.org/2000/svg">
<path d="M55.3802 5.49708C54.2302 6.64708 52.3702 6.64708 51.2202 5.49708C50.0702 4.34708 50.0702 2.48711 51.2202 1.33711C52.3702 0.187109 54.2302 0.187109 55.3802 1.33711C56.5302 2.48711 56.5302 4.34708 55.3802 5.49708ZM67.8201 13.7771C66.6701 12.6271 64.8102 12.6271 63.6602 13.7771C62.5102 14.9271 62.5102 16.7871 63.6602 17.9371C64.8102 19.0871 66.6701 19.0871 67.8201 17.9371C68.9701 16.7871 68.9701 14.9271 67.8201 13.7771ZM80.2601 26.2171C79.1101 25.0671 77.2502 25.0671 76.1002 26.2171C74.9502 27.3671 74.9502 29.2271 76.1002 30.3771C77.2502 31.5271 79.1101 31.5271 80.2601 30.3771C81.4101 29.2271 81.4101 27.3671 80.2601 26.2171ZM92.7001 38.6571C91.5501 37.5071 89.6902 37.5071 88.5402 38.6571C87.3902 39.8071 87.3902 41.6671 88.5402 42.8171C89.6902 43.9671 91.5501 43.9671 92.7001 42.8171C93.8502 41.6671 93.8502 39.8071 92.7001 38.6571ZM105.14 51.0971C103.99 49.9471 102.13 49.9471 100.98 51.0971C99.8302 52.2471 99.8302 54.1071 100.98 55.2571C102.13 56.4071 103.99 56.4071 105.14 55.2571C106.29 54.1071 106.29 52.2471 105.14 51.0971ZM42.9402 13.7771C41.7902 12.6271 39.9302 12.6271 38.7802 13.7771C37.6302 14.9271 37.6302 16.7871 38.7802 17.9371C39.9302 19.0871 41.7902 19.0871 42.9402 17.9371C44.0902 16.7871 44.0902 14.9271 42.9402 13.7771ZM55.3802 26.2171C54.2302 25.0671 52.3702 25.0671 51.2202 26.2171C50.0702 27.3671 50.0702 29.2271 51.2202 30.3771C52.3702 31.5271 54.2302 31.5271 55.3802 30.3771C56.5302 29.2271 56.5302 27.3671 55.3802 26.2171ZM67.8201 38.6571C66.6701 37.5071 64.8102 37.5071 63.6602 38.6571C62.5102 39.8071 62.5102 41.6671 63.6602 42.8171C64.8102 43.9671 66.6701 43.9671 67.8201 42.8171C68.9701 41.6671 68.9701 39.8071 67.8201 38.6571ZM80.2601 51.0971C79.1101 49.9471 77.2502 49.9471 76.1002 51.0971C74.9502 52.2471 74.9502 54.1071 76.1002 55.2571C77.2502 56.4071 79.1101 56.4071 80.2601 55.2571C81.4101 54.1071 81.4101 52.2471 80.2601 51.0971ZM92.7001 63.5371C91.5501 62.3871 89.6902 62.3871 88.5402 63.5371C87.3902 64.6871 87.3902 66.5471 88.5402 67.6971C89.6902 68.8471 91.5501 68.8471 92.7001 67.6971C93.8502 66.5471 93.8502 64.6871 92.7001 63.5371ZM30.5002 26.2171C29.3502 25.0671 27.4902 25.0671 26.3402 26.2171C25.1902 27.3671 25.1902 29.2271 26.3402 30.3771C27.4902 31.5271 29.3502 31.5271 30.5002 30.3771C31.6502 29.2271 31.6502 27.3671 30.5002 26.2171ZM42.9402 38.6571C41.7902 37.5071 39.9302 37.5071 38.7802 38.6571C37.6302 39.8071 37.6302 41.6671 38.7802 42.8171C39.9302 43.9671 41.7902 43.9671 42.9402 42.8171C44.0902 41.6671 44.0902 39.8071 42.9402 38.6571ZM55.3802 51.0971C54.2302 49.9471 52.3702 49.9471 51.2202 51.0971C50.0702 52.2471 50.0702 54.1071 51.2202 55.2571C52.3702 56.4071 54.2302 56.4071 55.3802 55.2571C56.5302 54.1071 56.5302 52.2471 55.3802 51.0971ZM67.8201 63.5371C66.6701 62.3871 64.8102 62.3871 63.6602 63.5371C62.5102 64.6871 62.5102 66.5471 63.6602 67.6971C64.8102 68.8471 66.6701 68.8471 67.8201 67.6971C68.9701 66.5471 68.9701 64.6871 67.8201 63.5371ZM80.2601 75.9771C79.1101 74.8271 77.2502 74.8271 76.1002 75.9771C74.9502 77.1271 74.9502 78.9871 76.1002 80.1371C77.2502 81.2871 79.1101 81.2871 80.2601 80.1371C81.4101 78.9871 81.4101 77.1171 80.2601 75.9771ZM18.0602 38.6571C16.9102 37.5071 15.0502 37.5071 13.9002 38.6571C12.7502 39.8071 12.7502 41.6671 13.9002 42.8171C15.0502 43.9671 16.9102 43.9671 18.0602 42.8171C19.2102 41.6671 19.2102 39.8071 18.0602 38.6571ZM30.5002 51.0971C29.3502 49.9471 27.4902 49.9471 26.3402 51.0971C25.1902 52.2471 25.1902 54.1071 26.3402 55.2571C27.4902 56.4071 29.3502 56.4071 30.5002 55.2571C31.6502 54.1071 31.6502 52.2471 30.5002 51.0971ZM42.9402 63.5371C41.7902 62.3871 39.9302 62.3871 38.7802 63.5371C37.6302 64.6871 37.6302 66.5471 38.7802 67.6971C39.9302 68.8471 41.7902 68.8471 42.9402 67.6971C44.0902 66.5471 44.0902 64.6871 42.9402 63.5371ZM55.3802 75.9771C54.2302 74.8271 52.3702 74.8271 51.2202 75.9771C50.0702 77.1271 50.0702 78.9871 51.2202 80.1371C52.3702 81.2871 54.2302 81.2871 55.3802 80.1371C56.5302 78.9871 56.5302 77.1171 55.3802 75.9771ZM67.8201 88.4171C66.6701 87.2671 64.8102 87.2671 63.6602 88.4171C62.5102 89.5671 62.5102 91.4271 63.6602 92.5771C64.8102 93.7271 66.6701 93.7271 67.8201 92.5771C68.9701 91.4271 68.9701 89.5571 67.8201 88.4171ZM5.62019 51.0971C4.47019 49.9471 2.61016 49.9471 1.46016 51.0971C0.310156 52.2471 0.310156 54.1071 1.46016 55.2571C2.61016 56.4071 4.47019 56.4071 5.62019 55.2571C6.77019 54.1071 6.77019 52.2471 5.62019 51.0971ZM18.0602 63.5371C16.9102 62.3871 15.0502 62.3871 13.9002 63.5371C12.7502 64.6871 12.7502 66.5471 13.9002 67.6971C15.0502 68.8471 16.9102 68.8471 18.0602 67.6971C19.2102 66.5471 19.2102 64.6871 18.0602 63.5371ZM30.5002 75.9771C29.3502 74.8271 27.4902 74.8271 26.3402 75.9771C25.1902 77.1271 25.1902 78.9871 26.3402 80.1371C27.4902 81.2871 29.3502 81.2871 30.5002 80.1371C31.6502 78.9871 31.6502 77.1171 30.5002 75.9771ZM42.9402 88.4171C41.7902 87.2671 39.9302 87.2671 38.7802 88.4171C37.6302 89.5671 37.6302 91.4271 38.7802 92.5771C39.9302 93.7271 41.7902 93.7271 42.9402 92.5771C44.0902 91.4271 44.0902 89.5571 42.9402 88.4171ZM55.3802 100.847C54.2302 99.6971 52.3702 99.6971 51.2202 100.847C50.0702 101.997 50.0702 103.857 51.2202 105.007C52.3702 106.157 54.2302 106.157 55.3802 105.007C56.5302 103.867 56.5302 101.997 55.3802 100.847Z" fill="#244579"/>
</svg>
